<svg xmlns="http://www.w3.org/2000/svg" width="210mm" height="297mm" viewBox="0 0 744.09448819 1052.3622047"><path fill="#00b1b3" stroke="#00b1b3" stroke-width=".239" stroke-linejoin="round" d="M25.278 213.79H525.04v499.761H25.28z"/><text y="712.934" x="190" style="line-height:125%" font-weight="400" font-size="40" font-family="sans-serif" letter-spacing="0" word-spacing="0" transform="translate(-91.429 -74.286)"><tspan style="-inkscape-font-specification:'sans-serif Bold'" y="712.934" x="190" font-weight="700" font-size="462.5" fill="#fff">k</tspan></text><path fill="#00b1b3" stroke="#00b1b3" stroke-width=".239" stroke-linejoin="round" d="M116.707 288.076h499.761v499.761H116.707z" transform="matrix(.228 0 0 .228 608.544 456.858)"/><text style="line-height:125%" x="190" y="712.934" font-weight="400" font-size="40" font-family="sans-serif" letter-spacing="0" word-spacing="0" transform="matrix(.228 0 0 .228 608.544 456.858)"><tspan x="190" y="712.934" style="-inkscape-font-specification:'sans-serif Bold'" font-weight="700" font-size="462.5" fill="#fff">k</tspan></text><path fill="#00b1b3" stroke="#00b1b3" stroke-width=".239" stroke-linejoin="round" d="M116.707 288.076h499.761v499.761H116.707z" transform="matrix(.144 0 0 .144 597.384 698.98)"/><text style="line-height:125%" x="190" y="712.934" font-weight="400" font-size="40" font-family="sans-serif" letter-spacing="0" word-spacing="0" transform="matrix(.144 0 0 .144 597.384 698.98)"><tspan x="190" y="712.934" style="-inkscape-font-specification:'sans-serif Bold'" font-weight="700" font-size="462.5" fill="#fff">k</tspan></text><g><path fill="#00b1b3" stroke="#00b1b3" stroke-width=".239" stroke-linejoin="round" d="M116.707 288.076h499.761v499.761H116.707z" transform="matrix(.114 0 0 .114 677.6 335.325)"/><text style="line-height:125%" x="190" y="712.934" font-weight="400" font-size="40" font-family="sans-serif" letter-spacing="0" word-spacing="0" transform="matrix(.114 0 0 .114 677.6 335.325)"><tspan x="190" y="712.934" style="-inkscape-font-specification:'sans-serif Bold'" font-weight="700" font-size="462.5" fill="#fff">k</tspan></text></g><g><path fill="#00b1b3" stroke="#00b1b3" stroke-width=".239" stroke-linejoin="round" d="M116.707 288.076h499.761v499.761H116.707z" transform="matrix(.064 0 0 .064 607.714 281.88)"/><text style="line-height:125%" x="190" y="712.934" font-weight="400" font-size="40" font-family="sans-serif" letter-spacing="0" word-spacing="0" transform="matrix(.064 0 0 .064 607.714 281.88)"><tspan x="190" y="712.934" style="-inkscape-font-specification:'sans-serif Bold'" font-weight="700" font-size="462.5" fill="#fff">k</tspan></text></g></svg>